<svg width="29" height="30" viewBox="0 0 29 30" fill="none" xmlns="http://www.w3.org/2000/svg">
<path d="M9.27214 18.4089H18.9388M5.64714 2.70058H22.5638C23.8985 2.70058 24.9805 3.78256 24.9805 5.11724V23.4287C24.9805 25.1025 23.3201 26.2695 21.7452 25.7026L19.8581 25.0232C19.2684 24.8109 18.6193 24.836 18.0478 25.0932L15.0972 26.421C14.4665 26.7048 13.7444 26.7048 13.1138 26.421L10.1631 25.0932C9.59161 24.836 8.94252 24.8109 8.35284 25.0232L6.46571 25.7026C4.89086 26.2695 3.23047 25.1025 3.23047 23.4287V5.11724C3.23047 3.78256 4.31245 2.70058 5.64714 2.70058Z" stroke="white" stroke-width="2" stroke-linecap="round"/>
<path d="M16.8104 7.5919C17.0076 7.39469 17.275 7.28391 17.5539 7.28391C17.8328 7.28391 18.1003 7.39469 18.2975 7.5919C18.4947 7.7891 18.6055 8.05656 18.6055 8.33545C18.6055 8.61434 18.4947 8.88181 18.2975 9.07901L13.5883 13.7882L11.6055 14.2839L12.1012 12.3011L16.8104 7.5919Z" stroke="white" stroke-width="1.5" stroke-linecap="round" stroke-linejoin="round"/>
</svg>
