<svg width="24" height="25" viewBox="0 0 24 25" fill="none" xmlns="http://www.w3.org/2000/svg">
<path d="M14 19.2632C14 17.6719 13.3679 16.1458 12.2426 15.0206C11.1174 13.8954 9.5913 13.2632 8 13.2632C6.4087 13.2632 4.88258 13.8954 3.75736 15.0206C2.63214 16.1458 2 17.6719 2 19.2632" stroke="white" stroke-width="2" stroke-linecap="round" stroke-linejoin="round"/>
<path d="M8 13.2632C10.2091 13.2632 12 11.4724 12 9.26324C12 7.05411 10.2091 5.26324 8 5.26324C5.79086 5.26324 4 7.05411 4 9.26324C4 11.4724 5.79086 13.2632 8 13.2632Z" stroke="white" stroke-width="2" stroke-linecap="round" stroke-linejoin="round"/>
<path d="M22 19.2632C22 17.6719 21.3679 16.1458 20.2426 15.0206C19.1174 13.8954 17.5913 13.2632 16 13.2632C17.0609 13.2632 18.0783 12.8418 18.8284 12.0917C19.5786 11.3415 20 10.3241 20 9.26324C20 8.20238 19.5786 7.18496 18.8284 6.43482C18.0783 5.68467 17.0609 5.26324 16 5.26324" stroke="white" stroke-width="2" stroke-linecap="round" stroke-linejoin="round"/>
</svg>
