<svg width="25" height="25" viewBox="0 0 25 25" fill="none" xmlns="http://www.w3.org/2000/svg">
<path d="M21.3916 16.0638C20.7554 17.5683 19.7603 18.894 18.4934 19.9251C17.2265 20.9562 15.7263 21.6612 14.124 21.9786C12.5217 22.2959 10.866 22.2159 9.3017 21.7456C7.73743 21.2752 6.31218 20.4289 5.15058 19.2804C3.98897 18.132 3.12637 16.7165 2.63819 15.1577C2.15001 13.5989 2.05112 11.9443 2.35015 10.3384C2.64919 8.73256 3.33705 7.22441 4.3536 5.94581C5.37015 4.66722 6.68444 3.6571 8.18156 3.00378" stroke="white" stroke-width="2" stroke-linecap="round" stroke-linejoin="round"/>
<path d="M22.1816 12.1738C22.1816 10.8605 21.923 9.56019 21.4204 8.34693C20.9179 7.13368 20.1813 6.03129 19.2527 5.1027C18.3241 4.17411 17.2217 3.43752 16.0085 2.93497C14.7952 2.43242 13.4949 2.17377 12.1816 2.17377V12.1738H22.1816Z" stroke="white" stroke-width="2" stroke-linecap="round" stroke-linejoin="round"/>
</svg>
