<svg width="20" height="24" viewBox="0 0 20 24" fill="none" xmlns="http://www.w3.org/2000/svg">
<path d="M12.8258 1.20605H6.37578C5.78208 1.20605 5.30078 1.68735 5.30078 2.28105V4.43105C5.30078 5.02476 5.78208 5.50605 6.37578 5.50605H12.8258C13.4195 5.50605 13.9008 5.02476 13.9008 4.43105V2.28105C13.9008 1.68735 13.4195 1.20605 12.8258 1.20605Z" stroke="white" stroke-width="2" stroke-linecap="round" stroke-linejoin="round"/>
<path d="M13.9 3.35645H16.05C16.6202 3.35645 17.1671 3.58296 17.5703 3.98617C17.9735 4.38937 18.2 4.93623 18.2 5.50645V20.5564C18.2 21.1267 17.9735 21.6735 17.5703 22.0767C17.1671 22.4799 16.6202 22.7064 16.05 22.7064H3.15C2.57978 22.7064 2.03292 22.4799 1.62972 22.0767C1.22652 21.6735 1 21.1267 1 20.5564V5.50645C1 4.93623 1.22652 4.38937 1.62972 3.98617C2.03292 3.58296 2.57978 3.35645 3.15 3.35645H5.3" stroke="white" stroke-width="2" stroke-linecap="round" stroke-linejoin="round"/>
<path d="M9.59961 10.8809H13.8996" stroke="white" stroke-width="2" stroke-linecap="round" stroke-linejoin="round"/>
<path d="M9.59961 16.2559H13.8996" stroke="white" stroke-width="2" stroke-linecap="round" stroke-linejoin="round"/>
<path d="M5.30078 10.8809H5.31278" stroke="white" stroke-width="2" stroke-linecap="round" stroke-linejoin="round"/>
<path d="M5.30078 16.2559H5.31278" stroke="white" stroke-width="2" stroke-linecap="round" stroke-linejoin="round"/>
</svg>
