<svg width="30" height="30" viewBox="0 0 30 30" fill="none" xmlns="http://www.w3.org/2000/svg">
<g clip-path="url(#clip0_345_1384)">
<path d="M13.25 24.791L24.9167 13.1243C25.4619 12.5901 25.8957 11.953 26.1931 11.2501C26.4906 10.5471 26.6457 9.79218 26.6496 9.0289C26.6534 8.26562 26.5059 7.50914 26.2156 6.80321C25.9253 6.09729 25.4979 5.45592 24.9582 4.91619C24.4184 4.37646 23.7771 3.94908 23.0711 3.65876C22.3652 3.36845 21.6087 3.22095 20.8455 3.22481C20.0822 3.22866 19.3272 3.38379 18.6243 3.68122C17.9213 3.97866 17.2843 4.41249 16.75 4.95765L5.08338 16.6243C4.53822 17.1586 4.10439 17.7956 3.80696 18.4985C3.50952 19.2015 3.35439 19.9564 3.35054 20.7197C3.34668 21.483 3.49418 22.2395 3.7845 22.9454C4.07481 23.6513 4.50219 24.2927 5.04192 24.8324C5.58165 25.3722 6.22302 25.7995 6.92895 26.0899C7.63487 26.3802 8.39135 26.5277 9.15463 26.5238C9.91791 26.52 10.6729 26.3648 11.3758 26.0674C12.0788 25.77 12.7158 25.3361 13.25 24.791Z" stroke="white" stroke-width="2" stroke-linecap="round" stroke-linejoin="round"/>
<path d="M10.9166 10.791L19.0833 18.9576" stroke="white" stroke-width="2" stroke-linecap="round" stroke-linejoin="round"/>
</g>
<defs>
<clipPath id="clip0_345_1384">
<rect width="28.9592" height="29.1296" fill="white" transform="translate(0.394531 0.686798)"/>
</clipPath>
</defs>
</svg>
